<svg id="visual" viewBox="0 0 900 600" width="900" height="600" xmlns="http://www.w3.org/2000/svg" xmlns:xlink="http://www.w3.org/1999/xlink" version="1.1"><rect x="0" y="0" width="900" height="600" fill="#B3BCD8"></rect><defs><linearGradient id="grad1_0" x1="33.3%" y1="0%" x2="100%" y2="100%"><stop offset="20%" stop-color="#b3bcd8" stop-opacity="1"></stop><stop offset="80%" stop-color="#b3bcd8" stop-opacity="1"></stop></linearGradient></defs><defs><linearGradient id="grad2_0" x1="0%" y1="0%" x2="66.7%" y2="100%"><stop offset="20%" stop-color="#b3bcd8" stop-opacity="1"></stop><stop offset="80%" stop-color="#b3bcd8" stop-opacity="1"></stop></linearGradient></defs><g transform="translate(900, 0)"><path d="M0 297.5C-49.6 286 -99.2 274.5 -145 251.1C-190.8 227.8 -232.8 192.6 -257.6 148.7C-282.4 104.9 -289.9 52.4 -297.5 0L0 0Z" fill="#3B5BBE"></path></g><g transform="translate(0, 600)"><path d="M0 -297.5C51.9 -289.6 103.7 -281.7 148.7 -257.6C193.7 -233.5 231.8 -193.1 255.5 -147.5C279.1 -101.9 288.3 -50.9 297.5 0L0 0Z" fill="#3B5BBE"></path></g></svg>